# xmcd CD database file
#
# Track frame offsets:
#	150
#	18403
#	31557
#	42847
#	62951
#	89337
#	107169
#	125741
#	143346
#	156289
#	180696
#	192675
#	216941
#
# Disc length: 3013 seconds
#
# Revision: 1
# Processed by: cddbd v1.4PL0 Copyright (c) Steve Scherf et al.
# Submitted via: CDex 1.40Release
#
DISCID=b60bc30d
DTITLE=Mark Jungers - Standing In Your Way
DYEAR=2002
DGENRE=Country
TTITLE0=Sentimental Guy
TTITLE1=Conviction
TTITLE2=Be With You Tonight
TTITLE3=How Long
TTITLE4=Standing In Your Way
TTITLE5=No Easy Way To Go
TTITLE6=Going Nowhere
TTITLE7=Knoxville Girl
TTITLE8=Lord Have Mercy
TTITLE9=Repo Outlet Mall
TTITLE10=Unlucky
TTITLE11=Remorse Waltz
TTITLE12=The Critic Song
EXTD=YEAR: 2002 ID3G: 2
EXTT0=
EXTT1=
EXTT2=
EXTT3=
EXTT4=
EXTT5=
EXTT6=
EXTT7=
EXTT8=
EXTT9=
EXTT10=
EXTT11=
EXTT12=
PLAYORDER=
